<svg xmlns="http://www.w3.org/2000/svg" viewBox="0 0 1500 1500">
    <defs>
        <style>
            .cls-1{fill:#222;}
            .cls-2{fill:#45d655;}
            .cls-3{fill:#fff732;}
            .cls-4{fill:#0187e6;}
            .cls-5{fill:#f82915;}
        </style>
    </defs>
    <title>simon</title>
    
    <g id="body"><circle class="cls-1" cx="750" cy="750" r="750"/></g>
    
    <path id="green-btn" class="cls-2" d="M255.64,48C102.15,69.4-19.39,191.52-41.16,346A25.18,25.18,0,0,1-66,367.82H-365.72a25.16,25.16,0,0,1-25-27.11C-364.21-3.54-91.28-278.14,250.52-304.18A25.12,25.12,0,0,1,277.37-279V23A25.24,25.24,0,0,1,255.64,48Z" transform="translate(444 354)"/>
    
    <path id="blue-btn" class="cls-3" d="M255.64,738.12c-153.48-21.38-275-143.5-296.79-298A25.18,25.18,0,0,0-66,418.32H-365.72a25.16,25.16,0,0,0-25,27.11c26.52,344.25,299.45,618.84,641.25,644.88a25.12,25.12,0,0,0,26.86-25.21V763.16A25.24,25.24,0,0,0,255.64,738.12Z" transform="translate(444 354)"/>
    
    <path id="yellow-btn" class="cls-4" d="M353.56,738.12c153.48-21.38,275-143.5,296.79-298a25.18,25.18,0,0,1,24.83-21.81H974.91a25.16,25.16,0,0,1,25,27.11c-26.52,344.25-299.45,618.84-641.25,644.88a25.12,25.12,0,0,1-26.86-25.21V763.16A25.24,25.24,0,0,1,353.56,738.12Z" transform="translate(444 354)"/>
    
    <path id="red-btn" class="cls-5" d="M353.56,48C507,69.4,628.59,191.52,650.35,346a25.18,25.18,0,0,0,24.83,21.81H974.91a25.16,25.16,0,0,0,25-27.11C973.4-3.54,700.48-278.14,358.68-304.18A25.12,25.12,0,0,0,331.82-279V23A25.24,25.24,0,0,0,353.56,48Z" transform="translate(444 354)"/>
    
</svg>